<svg width="330" height="330" viewBox="0 0 330 330" fill="none" xmlns="http://www.w3.org/2000/svg">
<path d="M165 330C255.901 330 330 255.899 330 165C330 74.099 255.901 0 165 0C74.099 0 0 74.099 0 165C0 255.899 74.099 330 165 330ZM111.899 196.8L119.825 190.185C138.947 174.225 150 150.603 150 125.695V105C150 96.599 156.599 90 165 90C173.401 90 180 96.599 180 105V165C180 168.9 178.5 172.8 175.499 175.499L133.2 218.099C126.688 223.963 117.788 223.398 111.899 218.099C106.199 212.1 106.199 202.8 111.899 196.8Z" fill="#6A5EEA"/>
</svg>
